<?xml version="1.0" encoding="utf-8"?>
<svg viewBox="10.443 8.905 198.036 193.277" xmlns="http://www.w3.org/2000/svg" xmlns:bx="https://boxy-svg.com">
  <rect x="17.913" y="16.024" width="184.625" height="179.918" rx="59.289" ry="59.289" style="stroke: rgb(0, 0, 0); stroke-width: 0px; filter: none; fill: rgb(255, 255, 255);" transform="matrix(1, 0, 0, 1, 0, -2.842170943040401e-14)"/>
  <path d="M 169.045 61.747 H 217.868 A 67.33 67.33 0 0 1 285.198 129.077 V 174.268 A 67.33 67.33 0 0 1 217.868 241.598 H 169.045 A 67.33 67.33 0 0 1 101.715 174.268 V 129.077 A 67.33 67.33 0 0 1 169.045 61.747 Z M 104.244 130.329 V 173.017 A 66.066 66.066 0 0 0 170.31 239.082 H 216.604 A 66.066 66.066 0 0 0 282.669 173.017 V 130.329 A 66.066 66.066 0 0 0 216.604 64.263 H 170.31 A 66.066 66.066 0 0 0 104.244 130.329 Z" style="fill-rule: nonzero; vector-effect: non-scaling-stroke; paint-order: fill; stroke-miterlimit: 6.02; stroke-width: 50px; fill: rgb(101, 184, 252); stroke: rgb(86, 156, 209); transform-origin: 189.306px 149.213px;" transform="matrix(0.999996006489, -0.002964001149, 0.001290000044, 1.000000953674, -84.112668805408, -45.544633995877)" bx:shape="frame 101.715 61.747 183.483 179.851 2.529 2.516 67.33 67.33 67.33 67.33 1@8301f872"/>
  <g style="" transform="matrix(0.6771430373191833, 0, 0, 0.6771430373191833, 35.83678054809572, 32.42648696899415)">
    <path class="cls-1" d="M 63.583 105.265 L 63.583 90.075 C 63.583 68.048 84.661 50.197 110.655 50.197 C 136.647 50.197 157.726 68.048 157.726 90.075 L 157.726 105.265" style="fill: none; stroke-miterlimit: 10; stroke-width: 15px; stroke: rgb(0, 86, 136);"/>
    <path class="cls-1" d="M 69.499 105.265 L 63.336 105.265 C 53.811 105.4 46.129 111.91 45.962 119.984 L 45.962 134.912 C 45.962 143.165 53.843 149.862 63.583 149.893 L 69.745 149.893 L 69.499 105.265 Z" style="fill: none; stroke-miterlimit: 10; stroke-width: 15px; stroke: rgb(0, 86, 136);"/>
    <path class="cls-1" d="M 151.812 149.893 L 157.972 149.893 C 167.713 149.862 175.593 143.165 175.593 134.912 L 175.593 119.984 C 175.426 111.747 167.442 105.176 157.726 105.265 L 151.565 105.265 L 151.812 149.893 Z" style="fill: none; stroke-miterlimit: 10; stroke-width: 15px; stroke: rgb(0, 86, 136);"/>
  </g>
</svg>