<?xml version="1.0"?>
<svg width="128" height="128" xmlns="http://www.w3.org/2000/svg" xmlns:svg="http://www.w3.org/2000/svg" enable-background="new 0 0 128 128" version="1.1" xml:space="preserve">
 <style type="text/css">.st0{fill-rule:evenodd;clip-rule:evenodd;}
	.st1{fill-rule:evenodd;clip-rule:evenodd;fill:#7ACED7;}</style>
 <g class="layer">
  <title>Layer 1</title>
  <path class="st0" d="m55.5,66.5l30.6,-30.5c4.7,-4.7 12.3,-4.7 17,0c4.7,4.7 4.7,12.3 0,17c-13.1,13 -26.1,26 -39.1,39c-4.5,4.5 -11.6,4.7 -16.3,0.6c-0.2,-0.2 -0.5,-0.3 -0.7,-0.6l-22,-22.2c-4.7,-4.7 -4.7,-12.3 0,-17c4.7,-4.7 12.3,-4.7 17,0l13.5,13.7l0,0zm0,5.7l-16.4,-16.5c-3.1,-3.1 -8.2,-3.1 -11.3,0c-3.1,3.1 -3.1,8.2 0,11.3l22,22.2l0,-0.1l0,0c3.1,3.1 8.2,3.1 11.3,0c29.9,-29.7 9.3,-9.1 39.1,-39c3.1,-3.1 3.1,-8.2 0,-11.3c-3.1,-3.1 -8.2,-3.1 -11.3,0l-33.4,33.4z" id="XMLID_8_"/>
  <path class="st1" d="m55.5,72.2l33.4,-33.4c3.1,-3.1 8.2,-3.1 11.3,0c3.1,3.1 3.1,8.2 0,11.3c-29.8,29.9 -9.2,9.3 -39.1,39.1c-3.1,3.1 -8.2,3.1 -11.3,0l0,0l0,0.1l-22,-22.2c-3.1,-3.1 -3.1,-8.2 0,-11.3c3.1,-3.1 8.2,-3.1 11.3,0l16.4,16.4z" id="XMLID_1_"/>
 </g>
</svg>