<?xml version="1.0" encoding="utf-8"?>
<svg viewBox="10.443 8.905 198.036 193.277" xmlns="http://www.w3.org/2000/svg" xmlns:bx="https://boxy-svg.com">
  <rect x="17.913" y="16.024" width="184.625" height="179.918" rx="59.289" ry="59.289" style="stroke: rgb(0, 0, 0); stroke-width: 0px; filter: none; fill: rgb(255, 255, 255);" transform="matrix(1, 0, 0, 1, 0, -2.842170943040401e-14)"/>
  <path d="M 169.045 61.747 H 217.868 A 67.33 67.33 0 0 1 285.198 129.077 V 174.268 A 67.33 67.33 0 0 1 217.868 241.598 H 169.045 A 67.33 67.33 0 0 1 101.715 174.268 V 129.077 A 67.33 67.33 0 0 1 169.045 61.747 Z M 104.244 130.329 V 173.017 A 66.066 66.066 0 0 0 170.31 239.082 H 216.604 A 66.066 66.066 0 0 0 282.669 173.017 V 130.329 A 66.066 66.066 0 0 0 216.604 64.263 H 170.31 A 66.066 66.066 0 0 0 104.244 130.329 Z" style="fill-rule: nonzero; vector-effect: non-scaling-stroke; paint-order: fill; stroke-miterlimit: 6.02; stroke-width: 50px; fill: rgb(101, 184, 252); stroke: rgb(86, 156, 209); transform-origin: 189.306px 149.213px;" transform="matrix(0.999996006489, -0.002964001149, 0.001290000044, 1.000000953674, -84.112668805408, -45.544633995877)" bx:shape="frame 101.715 61.747 183.483 179.851 2.529 2.516 67.33 67.33 67.33 67.33 1@8301f872"/>
  <rect id="secondary" x="73.648" y="70.708" width="70.433" height="60.371" rx="1" style="stroke-width: 10px; stroke: rgb(0, 86, 136); fill: rgb(255, 255, 255);"/>
  <path id="primary" d="M 144.081 114.075 L 156.91 120.463 C 160.251 122.144 164.195 119.725 164.205 115.986 L 164.205 85.8 C 164.195 82.058 160.251 79.638 156.91 81.323 L 144.081 87.713 L 144.081 114.075 Z M 113.896 100.894 L 103.834 93.348 L 103.834 108.44 L 113.896 100.894 Z M 139.051 131.079 L 78.679 131.079 C 75.901 131.079 73.648 128.825 73.648 126.048 L 73.648 75.739 C 73.648 72.956 75.901 70.708 78.679 70.708 L 139.051 70.708 C 141.827 70.708 144.081 72.956 144.081 75.739 L 144.081 126.048 C 144.081 128.825 141.827 131.079 139.051 131.079 Z" style="fill: none; stroke-linecap: round; stroke-linejoin: round; stroke-width: 10px; stroke: rgb(0, 86, 136);"/>
</svg>